<svg id="svg" version="1.1" xmlns="http://www.w3.org/2000/svg" xmlns:xlink="http://www.w3.org/1999/xlink" width="400" height="341.9509275882705" viewBox="0, 0, 400,341.9509275882705"><g id="svgg"><path id="path0" d="M0.000 170.917 L 0.000 341.833 200.000 341.833 L 400.000 341.833 400.000 170.917 L 400.000 0.000 200.000 0.000 L 0.000 0.000 0.000 170.917 M285.465 72.993 C 290.946 74.033,292.784 81.096,288.546 84.832 C 287.067 86.136,286.240 86.391,282.583 86.668 C 277.571 87.047,272.084 88.115,266.833 89.733 C 264.800 90.359,264.888 90.124,265.761 92.594 C 266.180 93.780,266.999 96.100,267.580 97.750 C 268.162 99.400,269.250 102.475,270.000 104.583 C 270.749 106.692,271.582 109.040,271.851 109.802 C 274.425 117.088,266.400 122.665,261.002 117.341 C 259.938 116.292,259.782 115.950,257.083 108.750 C 256.385 106.889,252.533 96.902,252.270 96.273 L 252.010 95.649 249.963 96.691 C 248.838 97.265,247.023 98.244,245.931 98.867 C 244.838 99.490,243.924 100.000,243.898 100.000 C 243.687 100.000,235.717 105.235,232.854 107.254 C 227.925 110.729,221.744 107.340,221.753 101.167 C 221.757 97.894,222.508 96.887,227.667 93.229 C 243.841 81.762,258.953 75.226,273.833 73.260 C 276.971 72.845,283.853 72.688,285.465 72.993 M310.829 104.012 C 315.197 105.994,315.985 111.731,312.527 116.391 C 301.665 131.034,284.491 140.017,262.583 142.516 C 257.997 143.040,245.093 142.838,240.250 142.168 C 238.482 141.923,232.913 141.180,231.500 141.000 C 224.026 140.048,213.663 139.727,207.333 140.251 C 182.252 142.327,169.289 154.554,166.338 178.917 C 165.820 183.193,164.072 184.978,160.567 184.807 C 158.400 184.701,156.965 183.722,156.050 181.724 C 154.969 179.362,155.243 167.161,156.502 161.583 C 156.585 161.217,156.812 160.204,157.007 159.333 C 161.252 140.344,175.572 128.317,197.678 125.175 C 204.714 124.175,218.539 124.037,223.917 124.913 C 242.520 127.945,269.693 125.064,284.417 118.498 C 284.783 118.335,285.571 117.998,286.167 117.749 C 292.229 115.218,298.476 111.198,302.750 107.078 C 305.940 104.002,308.590 102.997,310.829 104.012 M202.294 148.238 C 204.071 148.711,204.300 148.903,208.997 153.843 C 210.691 155.625,212.980 158.021,214.083 159.167 C 215.187 160.313,217.588 162.823,219.420 164.746 C 221.251 166.669,223.691 169.219,224.840 170.413 C 225.990 171.606,227.522 173.202,228.244 173.958 C 229.647 175.427,229.746 175.493,229.882 175.042 C 229.931 174.881,230.282 173.850,230.662 172.750 C 231.836 169.355,232.782 165.293,233.418 160.917 C 233.874 157.781,234.031 157.157,234.569 156.358 C 236.857 152.960,242.064 153.353,243.757 157.051 C 244.556 158.797,244.742 167.285,244.097 172.583 C 240.239 204.271,216.103 218.395,173.750 213.748 C 157.655 211.982,141.014 212.872,128.417 216.174 C 123.212 217.538,120.482 218.414,116.417 220.024 C 108.398 223.199,102.196 227.017,96.807 232.095 C 92.632 236.029,89.277 236.326,86.764 232.983 C 84.379 229.811,84.588 226.334,87.394 222.500 C 94.516 212.768,106.157 204.584,119.000 200.278 C 131.400 196.122,147.446 194.885,161.500 197.004 C 173.104 198.753,184.783 199.405,192.375 198.728 C 193.830 198.598,193.849 198.665,191.633 196.141 C 190.353 194.683,188.508 192.538,187.912 191.815 C 186.749 190.403,180.423 183.067,180.225 182.901 C 180.106 182.801,179.740 182.154,179.411 181.462 C 177.244 176.899,180.422 171.917,185.500 171.917 C 188.546 171.917,188.673 172.008,195.083 178.841 C 197.947 181.892,201.540 185.711,202.917 187.165 C 203.742 188.037,205.542 189.947,206.917 191.410 C 210.477 195.198,210.056 194.869,210.887 194.510 C 211.508 194.242,212.812 193.611,214.250 192.881 C 214.801 192.602,218.200 190.487,218.333 190.341 C 218.379 190.290,218.962 189.808,219.629 189.269 C 220.295 188.730,220.882 188.223,220.932 188.141 C 221.044 187.961,220.905 187.793,217.007 183.417 C 215.293 181.492,212.659 178.534,211.153 176.844 C 209.648 175.154,206.842 171.997,204.917 169.828 C 202.992 167.660,199.992 164.296,198.250 162.353 C 194.222 157.859,193.918 157.331,193.917 154.833 C 193.916 150.194,197.889 147.065,202.294 148.238 M139.923 222.089 C 142.600 222.777,143.656 224.048,145.731 229.083 C 147.445 233.244,148.295 235.262,148.783 236.333 C 149.013 236.838,149.461 237.887,149.779 238.667 C 150.096 239.446,150.455 240.308,150.576 240.583 C 150.698 240.858,151.190 242.021,151.671 243.167 C 152.784 245.819,152.588 245.685,154.199 244.908 C 160.006 242.109,164.689 239.216,169.000 235.765 C 171.004 234.160,171.914 233.791,173.917 233.767 C 178.584 233.713,181.865 237.984,180.572 242.430 C 179.160 247.286,166.281 256.307,153.833 261.157 C 152.596 261.639,151.433 262.093,151.250 262.167 C 148.422 263.298,142.139 265.105,137.000 266.263 C 134.403 266.849,129.683 267.726,127.667 267.997 C 118.552 269.224,117.320 269.267,115.583 268.424 C 110.831 266.118,109.999 259.061,114.133 256.127 C 115.361 255.256,116.016 255.028,118.121 254.744 C 126.174 253.655,133.310 252.236,139.125 250.569 C 139.668 250.413,139.676 250.440,137.600 245.207 C 136.555 242.572,135.272 239.329,134.748 238.000 C 134.225 236.671,133.306 234.346,132.706 232.833 C 131.649 230.167,131.616 230.038,131.615 228.583 C 131.611 224.096,135.600 220.978,139.923 222.089 " stroke="none" fill="#2c63fb" fill-rule="evenodd"></path><path id="path1" d="M198.809 148.318 C 194.814 149.622,192.851 153.860,194.542 157.535 C 194.985 158.499,196.366 160.086,211.329 176.833 C 218.616 184.989,221.166 187.919,221.115 188.076 C 220.804 189.032,215.222 192.690,211.457 194.404 L 210.164 194.993 208.448 193.205 C 207.503 192.221,205.537 190.142,204.078 188.583 C 202.620 187.025,200.780 185.075,199.991 184.250 C 199.202 183.425,197.295 181.400,195.753 179.750 C 188.715 172.219,188.536 172.083,185.583 172.083 C 181.260 172.083,178.252 175.500,178.956 179.610 C 179.280 181.503,179.674 182.041,186.930 190.491 C 192.745 197.262,193.814 198.583,193.551 198.680 C 192.681 199.002,184.795 199.207,180.569 199.017 C 174.231 198.733,172.009 198.515,161.833 197.185 C 129.906 193.011,102.688 202.242,87.676 222.334 C 84.503 226.580,84.414 230.530,87.421 233.552 C 90.097 236.240,92.805 235.688,97.195 231.560 C 112.153 217.497,140.525 210.470,170.750 213.340 C 172.583 213.514,175.246 213.771,176.667 213.911 C 220.033 218.179,244.357 200.524,244.330 164.796 C 244.324 156.573,243.307 154.427,239.306 154.195 C 235.986 154.003,234.289 155.782,233.668 160.105 C 232.896 165.485,231.640 170.749,230.298 174.233 L 229.730 175.708 222.749 168.395 C 218.910 164.374,215.010 160.296,214.083 159.333 C 213.155 158.371,211.501 156.646,210.407 155.500 C 203.628 148.405,203.530 148.331,200.791 148.230 C 199.943 148.199,199.052 148.239,198.809 148.318 M136.417 222.224 C 133.704 223.124,131.876 225.388,131.705 228.060 C 131.606 229.589,131.758 230.118,133.654 234.876 C 134.467 236.915,135.409 239.296,135.749 240.167 C 136.270 241.502,138.423 246.958,139.510 249.698 L 139.821 250.480 138.869 250.761 C 133.825 252.247,125.944 253.835,119.500 254.664 C 116.061 255.106,115.755 255.188,114.551 255.992 C 109.475 259.382,111.204 267.578,117.260 268.835 C 119.709 269.344,133.326 267.206,141.777 264.987 C 156.556 261.106,169.876 254.124,178.046 245.977 C 180.113 243.916,180.583 242.901,180.583 240.500 C 180.583 234.342,174.172 231.755,169.083 235.860 C 165.087 239.084,160.982 241.671,155.544 244.395 C 152.489 245.925,152.656 245.913,152.132 244.625 C 151.644 243.425,147.887 234.521,145.750 229.500 C 143.814 224.952,143.671 224.689,142.593 223.705 C 141.033 222.279,138.258 221.613,136.417 222.224 " stroke="none" fill="#fbfbfb" fill-rule="evenodd"></path><path id="path2" d="M277.333 73.005 C 263.049 74.230,248.317 79.774,233.167 89.628 C 229.521 91.999,224.689 95.479,223.740 96.417 C 219.268 100.837,222.858 108.831,229.152 108.466 C 230.808 108.371,231.836 107.879,234.793 105.769 C 239.941 102.095,251.708 95.152,252.109 95.553 C 252.158 95.603,253.769 99.755,255.689 104.780 C 260.519 117.428,260.223 116.803,261.959 118.016 C 265.647 120.593,270.713 118.879,272.025 114.610 C 272.724 112.334,272.612 111.947,265.820 93.193 C 264.651 89.967,264.686 90.270,265.458 90.022 C 271.007 88.239,276.771 87.049,282.100 86.587 C 286.565 86.199,287.125 86.022,288.750 84.486 C 292.447 80.989,290.912 74.720,286.000 73.256 C 284.881 72.923,279.959 72.780,277.333 73.005 M308.041 103.837 C 306.534 104.147,304.843 105.240,302.786 107.232 C 288.062 121.495,258.200 128.688,227.333 125.407 C 187.638 121.188,164.651 131.810,157.569 157.647 C 155.121 166.578,154.697 179.863,156.768 182.717 C 158.212 184.706,160.964 185.366,163.166 184.250 C 165.212 183.213,165.731 182.270,166.266 178.608 C 169.546 156.172,179.348 145.129,199.500 141.165 C 208.615 139.372,222.598 139.439,234.917 141.334 C 265.084 145.975,290.141 139.410,307.084 122.424 C 311.364 118.133,313.845 114.782,314.431 112.498 C 315.601 107.933,311.982 103.025,308.041 103.837 " stroke="none" fill="#040404" fill-rule="evenodd"></path><path id="path3" d="M199.514 148.061 C 199.552 148.094,200.221 148.159,201.000 148.204 C 201.779 148.250,202.229 148.230,202.000 148.160 C 201.584 148.033,199.382 147.946,199.514 148.061 M197.333 148.844 C 195.978 149.591,194.312 151.389,194.341 152.074 C 194.345 152.171,194.490 151.981,194.664 151.652 C 195.195 150.647,196.361 149.523,197.500 148.917 C 198.096 148.600,198.508 148.341,198.417 148.340 C 198.325 148.340,197.838 148.567,197.333 148.844 M203.667 148.928 C 204.079 149.161,205.279 150.192,206.333 151.218 C 207.682 152.531,207.879 152.691,206.999 151.756 C 204.957 149.586,203.648 148.496,203.092 148.502 C 202.996 148.503,203.254 148.695,203.667 148.928 M208.356 153.310 C 208.427 153.512,212.031 157.191,212.095 157.127 C 212.119 157.103,211.274 156.195,210.217 155.110 C 209.160 154.025,208.323 153.215,208.356 153.310 M193.875 153.917 C 193.877 154.283,193.911 154.414,193.951 154.206 C 193.991 153.999,193.990 153.699,193.948 153.540 C 193.906 153.380,193.874 153.550,193.875 153.917 M238.458 154.121 C 238.756 154.158,239.244 154.158,239.542 154.121 C 239.840 154.084,239.596 154.053,239.000 154.053 C 238.404 154.053,238.160 154.084,238.458 154.121 M235.805 155.047 C 235.029 155.636,233.996 157.032,234.007 157.477 C 234.010 157.627,234.125 157.491,234.263 157.174 C 234.647 156.288,235.243 155.591,236.105 155.020 C 236.537 154.734,236.808 154.500,236.708 154.500 C 236.608 154.500,236.201 154.746,235.805 155.047 M241.850 155.031 C 242.695 155.643,243.102 156.112,243.617 157.068 C 244.068 157.903,244.124 157.729,243.683 156.868 C 243.170 155.868,241.779 154.500,241.276 154.500 C 241.188 154.500,241.447 154.739,241.850 155.031 M193.872 155.500 C 193.872 155.821,193.906 155.952,193.948 155.792 C 193.990 155.631,193.990 155.369,193.948 155.208 C 193.906 155.048,193.872 155.179,193.872 155.500 M213.840 159.080 C 217.605 163.036,219.356 164.851,221.000 166.501 C 222.479 167.986,222.530 168.025,221.327 166.754 C 218.308 163.563,216.010 161.181,214.167 159.332 C 212.462 157.622,212.426 157.594,213.840 159.080 M194.939 158.525 C 195.113 158.856,200.968 165.443,201.509 165.917 C 201.719 166.100,200.659 164.862,199.154 163.166 C 197.648 161.470,196.052 159.670,195.606 159.166 C 195.160 158.662,194.860 158.374,194.939 158.525 M233.705 159.000 C 233.705 159.321,233.740 159.452,233.782 159.292 C 233.823 159.131,233.823 158.869,233.782 158.708 C 233.740 158.548,233.705 158.679,233.705 159.000 M244.212 159.500 C 244.212 159.912,244.245 160.081,244.284 159.875 C 244.324 159.669,244.324 159.331,244.284 159.125 C 244.245 158.919,244.212 159.087,244.212 159.500 M244.405 164.750 C 244.405 166.950,244.429 167.827,244.458 166.699 C 244.487 165.571,244.487 163.771,244.458 162.699 C 244.429 161.627,244.405 162.550,244.405 164.750 M202.358 166.958 C 202.684 167.302,204.427 169.252,206.233 171.292 C 208.039 173.331,209.559 175.000,209.611 175.000 C 209.663 175.000,209.453 174.719,209.143 174.375 C 208.834 174.031,207.094 172.081,205.277 170.042 C 203.460 168.002,201.926 166.333,201.869 166.333 C 201.812 166.333,202.032 166.615,202.358 166.958 M232.083 167.833 C 232.020 168.121,232.003 168.392,232.045 168.434 C 232.088 168.477,232.171 168.272,232.229 167.979 C 232.368 167.284,232.233 167.150,232.083 167.833 M226.255 172.087 C 228.158 174.060,229.741 175.648,229.773 175.616 C 229.804 175.585,229.212 174.926,228.457 174.154 C 227.701 173.381,226.153 171.792,225.015 170.624 C 223.878 169.456,222.913 168.500,222.871 168.500 C 222.830 168.500,224.353 170.114,226.255 172.087 M244.214 170.250 C 244.216 170.708,244.248 170.876,244.286 170.623 C 244.325 170.369,244.324 169.994,244.284 169.789 C 244.244 169.584,244.213 169.792,244.214 170.250 M231.095 171.429 C 231.034 171.673,231.016 171.905,231.055 171.944 C 231.094 171.983,231.177 171.816,231.238 171.571 C 231.299 171.327,231.317 171.095,231.278 171.056 C 231.239 171.017,231.157 171.184,231.095 171.429 M244.045 172.000 C 244.045 172.412,244.078 172.581,244.118 172.375 C 244.157 172.169,244.157 171.831,244.118 171.625 C 244.078 171.419,244.045 171.588,244.045 172.000 M184.792 171.955 C 185.181 171.990,185.819 171.990,186.208 171.955 C 186.598 171.920,186.279 171.892,185.500 171.892 C 184.721 171.892,184.402 171.920,184.792 171.955 M182.583 172.477 C 182.033 172.739,181.434 173.132,181.251 173.352 L 180.919 173.750 181.335 173.394 C 181.800 172.996,182.590 172.573,183.484 172.244 C 183.814 172.123,183.971 172.018,183.833 172.012 C 183.696 172.005,183.133 172.215,182.583 172.477 M230.520 173.186 C 230.327 173.757,230.198 174.253,230.233 174.288 C 230.268 174.323,230.454 173.885,230.647 173.314 C 230.840 172.743,230.969 172.247,230.934 172.212 C 230.899 172.177,230.712 172.615,230.520 173.186 M188.750 172.817 C 189.631 173.324,191.180 174.859,195.753 179.750 C 199.385 183.635,201.369 185.686,201.433 185.622 C 201.461 185.594,200.903 184.974,200.193 184.244 C 199.482 183.514,198.233 182.204,197.417 181.333 C 191.091 174.585,190.011 173.485,189.125 172.889 C 188.671 172.583,188.214 172.334,188.108 172.335 C 188.003 172.336,188.292 172.553,188.750 172.817 M243.879 173.500 C 243.879 173.912,243.911 174.081,243.951 173.875 C 243.991 173.669,243.991 173.331,243.951 173.125 C 243.911 172.919,243.879 173.088,243.879 173.500 M243.539 175.667 C 243.539 175.987,243.573 176.119,243.615 175.958 C 243.657 175.798,243.657 175.535,243.615 175.375 C 243.573 175.215,243.539 175.346,243.539 175.667 M179.226 175.949 C 179.084 176.287,178.937 176.831,178.898 177.157 C 178.846 177.589,178.895 177.510,179.079 176.866 C 179.217 176.380,179.409 175.836,179.505 175.658 C 179.600 175.479,179.634 175.333,179.581 175.333 C 179.527 175.333,179.367 175.610,179.226 175.949 M212.875 178.750 C 214.572 180.675,217.094 183.524,218.480 185.082 C 219.866 186.640,220.976 187.988,220.946 188.078 C 220.916 188.167,220.314 188.712,219.608 189.287 C 218.902 189.863,218.383 190.333,218.454 190.333 C 218.636 190.332,221.047 188.287,221.116 188.075 C 221.168 187.912,211.960 177.402,210.463 175.917 C 210.094 175.550,211.179 176.825,212.875 178.750 M243.100 177.850 C 243.039 178.232,243.021 178.577,243.061 178.617 C 243.101 178.657,243.186 178.379,243.250 178.000 C 243.314 177.621,243.331 177.276,243.289 177.233 C 243.246 177.190,243.161 177.468,243.100 177.850 M178.845 179.767 C 178.833 180.122,179.164 181.225,179.255 181.134 C 179.282 181.106,179.203 180.708,179.080 180.250 C 178.957 179.792,178.851 179.574,178.845 179.767 M242.429 180.762 C 242.367 181.006,242.349 181.238,242.389 181.277 C 242.428 181.317,242.510 181.149,242.571 180.905 C 242.633 180.661,242.651 180.429,242.611 180.389 C 242.572 180.350,242.490 180.518,242.429 180.762 M179.818 182.305 C 179.908 182.473,180.113 182.717,180.273 182.847 C 180.453 182.993,180.413 182.877,180.167 182.542 C 179.729 181.944,179.565 181.833,179.818 182.305 M241.619 183.536 C 241.467 184.010,241.371 184.426,241.405 184.460 C 241.438 184.494,241.594 184.137,241.750 183.667 C 241.906 183.196,242.003 182.780,241.964 182.742 C 241.926 182.704,241.771 183.061,241.619 183.536 M181.724 184.615 C 182.439 185.457,183.149 186.244,183.301 186.365 C 183.453 186.485,182.992 185.894,182.276 185.052 C 181.561 184.210,180.851 183.422,180.699 183.302 C 180.547 183.182,181.008 183.772,181.724 184.615 M240.852 185.685 C 240.749 185.980,240.694 186.250,240.730 186.286 C 240.766 186.321,240.879 186.109,240.981 185.815 C 241.084 185.520,241.139 185.250,241.103 185.214 C 241.068 185.179,240.955 185.391,240.852 185.685 M205.201 189.750 C 207.262 191.950,209.091 193.858,209.266 193.990 C 209.440 194.122,209.055 193.672,208.408 192.990 C 207.762 192.308,206.600 191.076,205.825 190.253 C 205.050 189.430,203.750 188.080,202.935 187.253 C 202.120 186.426,203.140 187.550,205.201 189.750 M240.111 187.528 C 239.867 188.093,239.694 188.583,239.727 188.616 C 239.759 188.648,239.987 188.213,240.231 187.648 C 240.476 187.083,240.649 186.594,240.616 186.560 C 240.582 186.527,240.355 186.962,240.111 187.528 M184.845 188.254 C 185.592 189.127,186.538 190.195,186.948 190.629 C 187.359 191.062,186.784 190.348,185.672 189.042 C 184.559 187.735,183.613 186.667,183.568 186.667 C 183.524 186.667,184.098 187.381,184.845 188.254 M216.707 191.395 C 215.470 192.191,214.686 192.773,215.333 192.415 C 215.947 192.076,218.167 190.628,218.167 190.567 C 218.167 190.457,218.138 190.473,216.707 191.395 M237.826 192.125 C 237.529 192.652,236.994 193.515,236.637 194.042 C 236.280 194.569,236.025 195.000,236.071 195.000 C 236.190 195.000,237.356 193.255,237.992 192.125 C 238.289 191.598,238.494 191.167,238.448 191.167 C 238.403 191.167,238.122 191.598,237.826 192.125 M188.025 191.921 C 188.678 192.763,191.363 195.833,191.446 195.833 C 191.536 195.833,189.225 193.112,188.275 192.100 C 187.923 191.724,187.810 191.644,188.025 191.921 M214.292 192.845 C 213.948 193.026,213.667 193.212,213.667 193.257 C 213.667 193.303,213.967 193.187,214.333 193.000 C 214.700 192.813,215.000 192.624,215.000 192.580 C 215.000 192.471,214.999 192.471,214.292 192.845 M211.667 194.167 C 211.346 194.342,211.158 194.486,211.250 194.486 C 211.342 194.486,211.679 194.342,212.000 194.167 C 212.321 193.991,212.508 193.847,212.417 193.847 C 212.325 193.847,211.987 193.991,211.667 194.167 M209.801 194.641 C 210.140 194.945,211.237 194.848,210.930 194.541 C 210.891 194.502,210.726 194.544,210.564 194.634 C 210.354 194.752,210.146 194.727,209.843 194.548 L 209.417 194.297 209.801 194.641 M234.493 197.042 C 233.905 197.798,232.411 199.429,231.173 200.667 C 229.934 201.904,229.445 202.454,230.085 201.888 C 231.951 200.240,234.122 197.878,235.305 196.208 C 236.031 195.185,235.559 195.668,234.493 197.042 M144.625 196.125 C 145.840 196.153,147.827 196.153,149.042 196.125 C 150.256 196.096,149.262 196.073,146.833 196.073 C 144.404 196.073,143.410 196.096,144.625 196.125 M192.000 196.583 C 192.311 196.904,192.603 197.167,192.649 197.167 C 192.695 197.167,192.478 196.904,192.167 196.583 C 191.856 196.262,191.564 196.000,191.518 196.000 C 191.472 196.000,191.689 196.262,192.000 196.583 M140.128 196.287 C 140.428 196.325,140.878 196.324,141.128 196.286 C 141.378 196.248,141.133 196.217,140.583 196.218 C 140.033 196.219,139.828 196.250,140.128 196.287 M152.542 196.286 C 152.794 196.324,153.206 196.324,153.458 196.286 C 153.710 196.248,153.504 196.217,153.000 196.217 C 152.496 196.217,152.290 196.248,152.542 196.286 M137.877 196.453 C 138.131 196.491,138.506 196.490,138.711 196.451 C 138.916 196.411,138.708 196.380,138.250 196.381 C 137.792 196.382,137.624 196.415,137.877 196.453 M155.044 196.453 C 155.297 196.491,155.672 196.490,155.877 196.451 C 156.082 196.411,155.875 196.380,155.417 196.381 C 154.958 196.382,154.791 196.415,155.044 196.453 M136.294 196.618 C 136.501 196.658,136.801 196.656,136.960 196.615 C 137.120 196.573,136.950 196.540,136.583 196.542 C 136.217 196.544,136.086 196.578,136.294 196.618 M156.958 196.618 C 157.165 196.657,157.502 196.657,157.708 196.618 C 157.915 196.578,157.746 196.545,157.333 196.545 C 156.921 196.545,156.752 196.578,156.958 196.618 M133.460 196.951 C 133.668 196.991,133.968 196.990,134.127 196.948 C 134.286 196.906,134.117 196.874,133.750 196.875 C 133.383 196.877,133.253 196.911,133.460 196.951 M159.847 196.895 C 159.885 196.928,160.404 196.997,161.000 197.048 C 161.683 197.106,161.898 197.091,161.583 197.006 C 161.074 196.870,159.721 196.783,159.847 196.895 M193.165 197.958 C 193.472 198.348,193.750 198.667,193.784 198.667 C 193.933 198.667,193.490 198.046,193.069 197.667 C 192.665 197.301,192.676 197.337,193.165 197.958 M128.000 197.833 C 127.440 198.013,128.045 198.013,128.750 197.833 C 129.199 197.719,129.208 197.706,128.833 197.703 C 128.604 197.701,128.229 197.760,128.000 197.833 M166.208 197.782 C 166.369 197.823,166.631 197.823,166.792 197.782 C 166.952 197.740,166.821 197.705,166.500 197.705 C 166.179 197.705,166.048 197.740,166.208 197.782 M167.542 197.948 C 167.702 197.990,167.965 197.990,168.125 197.948 C 168.285 197.906,168.154 197.872,167.833 197.872 C 167.512 197.872,167.381 197.906,167.542 197.948 M170.292 198.284 C 170.498 198.324,170.835 198.324,171.042 198.284 C 171.248 198.245,171.079 198.212,170.667 198.212 C 170.254 198.212,170.085 198.245,170.292 198.284 M172.127 198.451 C 172.334 198.491,172.634 198.490,172.794 198.448 C 172.953 198.406,172.783 198.374,172.417 198.375 C 172.050 198.377,171.920 198.411,172.127 198.451 M173.875 198.619 C 174.127 198.658,174.540 198.658,174.792 198.619 C 175.044 198.581,174.838 198.550,174.333 198.550 C 173.829 198.550,173.623 198.581,173.875 198.619 M123.833 198.841 C 123.651 198.964,123.718 198.980,124.083 198.898 C 124.696 198.761,124.829 198.666,124.403 198.669 C 124.227 198.671,123.971 198.748,123.833 198.841 M175.958 198.787 C 176.256 198.824,176.744 198.824,177.042 198.787 C 177.340 198.750,177.096 198.720,176.500 198.720 C 175.904 198.720,175.660 198.750,175.958 198.787 M192.042 198.786 C 192.294 198.824,192.706 198.824,192.958 198.786 C 193.210 198.748,193.004 198.717,192.500 198.717 C 191.996 198.717,191.790 198.748,192.042 198.786 M178.708 198.953 C 178.960 198.991,179.373 198.991,179.625 198.953 C 179.877 198.915,179.671 198.883,179.167 198.883 C 178.662 198.883,178.456 198.915,178.708 198.953 M189.711 198.953 C 189.964 198.991,190.339 198.990,190.544 198.951 C 190.749 198.911,190.542 198.880,190.083 198.881 C 189.625 198.882,189.457 198.915,189.711 198.953 M183.458 199.124 C 184.215 199.155,185.452 199.155,186.208 199.124 C 186.965 199.093,186.346 199.068,184.833 199.068 C 183.321 199.068,182.702 199.093,183.458 199.124 M121.417 199.500 C 121.207 199.590,121.176 199.643,121.333 199.643 C 121.471 199.643,121.733 199.579,121.917 199.500 C 122.127 199.410,122.158 199.357,122.000 199.357 C 121.862 199.357,121.600 199.421,121.417 199.500 M119.115 200.197 C 118.582 200.383,118.175 200.564,118.211 200.600 C 118.246 200.635,118.795 200.483,119.429 200.261 C 120.064 200.040,120.471 199.858,120.333 199.859 C 120.196 199.859,119.647 200.012,119.115 200.197 M115.701 201.445 C 115.124 201.681,114.680 201.903,114.715 201.937 C 114.775 201.997,116.843 201.204,116.986 201.067 C 117.153 200.906,116.674 201.047,115.701 201.445 M112.542 202.760 C 112.060 202.980,111.667 203.198,111.667 203.245 C 111.667 203.329,113.498 202.557,113.644 202.411 C 113.815 202.241,113.373 202.381,112.542 202.760 M109.458 204.260 C 108.473 204.760,107.667 205.207,107.667 205.253 C 107.667 205.327,111.317 203.554,111.486 203.398 C 111.741 203.162,111.004 203.475,109.458 204.260 M226.886 204.304 C 225.488 205.361,225.353 205.550,226.624 204.672 C 227.506 204.063,228.201 203.468,227.979 203.512 C 227.945 203.519,227.453 203.876,226.886 204.304 M106.500 205.847 L 106.083 206.187 106.625 205.922 C 106.923 205.777,107.167 205.623,107.167 205.579 C 107.167 205.413,106.901 205.520,106.500 205.847 M224.375 206.019 C 223.807 206.383,223.623 206.627,224.125 206.351 C 224.507 206.141,225.106 205.678,225.000 205.675 C 224.954 205.673,224.673 205.828,224.375 206.019 M222.458 207.146 C 221.839 207.494,221.276 207.841,221.208 207.918 C 221.052 208.093,223.359 206.858,223.575 206.651 C 223.845 206.394,223.624 206.491,222.458 207.146 M103.331 207.772 C 102.338 208.430,101.770 208.921,102.583 208.419 C 103.948 207.576,104.506 207.167,104.289 207.167 C 104.265 207.167,103.834 207.439,103.331 207.772 M219.167 208.833 C 218.662 209.100,218.325 209.318,218.417 209.318 C 218.508 209.318,218.996 209.100,219.500 208.833 C 220.004 208.567,220.342 208.349,220.250 208.349 C 220.158 208.349,219.671 208.567,219.167 208.833 M101.417 209.098 L 100.917 209.528 101.458 209.169 C 101.756 208.972,102.000 208.778,102.000 208.739 C 102.000 208.614,101.929 208.657,101.417 209.098 M99.302 210.594 C 98.506 211.195,97.531 211.989,97.135 212.358 C 96.427 213.021,96.430 213.020,97.333 212.291 C 97.837 211.884,98.831 211.118,99.542 210.589 C 100.669 209.748,100.959 209.497,100.792 209.501 C 100.769 209.502,100.098 209.994,99.302 210.594 M216.417 210.012 C 216.050 210.188,215.938 210.286,216.167 210.229 C 216.639 210.111,217.505 209.677,217.250 209.686 C 217.158 209.689,216.783 209.836,216.417 210.012 M214.917 210.589 C 214.500 210.790,214.486 210.813,214.833 210.728 C 215.306 210.613,215.836 210.342,215.583 210.346 C 215.492 210.347,215.192 210.457,214.917 210.589 M213.083 211.167 C 212.625 211.336,212.362 211.474,212.500 211.474 C 212.637 211.474,213.125 211.336,213.583 211.167 C 214.042 210.998,214.304 210.859,214.167 210.859 C 214.029 210.859,213.542 210.998,213.083 211.167 M210.917 211.833 C 210.707 211.924,210.676 211.977,210.833 211.977 C 210.971 211.977,211.233 211.912,211.417 211.833 C 211.627 211.743,211.658 211.690,211.500 211.690 C 211.362 211.690,211.100 211.755,210.917 211.833 M155.198 212.791 C 156.362 212.820,158.312 212.820,159.532 212.791 C 160.752 212.763,159.800 212.739,157.417 212.739 C 155.033 212.739,154.035 212.763,155.198 212.791 M150.128 212.954 C 150.428 212.991,150.878 212.990,151.128 212.952 C 151.378 212.914,151.133 212.884,150.583 212.885 C 150.033 212.886,149.828 212.917,150.128 212.954 M163.455 212.954 C 163.750 212.990,164.275 212.991,164.621 212.955 C 164.967 212.919,164.725 212.889,164.083 212.888 C 163.442 212.887,163.159 212.917,163.455 212.954 M93.731 215.375 C 91.262 217.764,88.725 220.591,87.694 222.102 C 87.006 223.111,87.415 222.648,88.831 220.816 C 89.425 220.046,91.355 217.973,93.119 216.208 C 94.883 214.444,96.294 213.000,96.256 213.000 C 96.217 213.000,95.081 214.069,93.731 215.375 M147.375 213.119 C 147.627 213.158,148.040 213.158,148.292 213.119 C 148.544 213.081,148.337 213.050,147.833 213.050 C 147.329 213.050,147.123 213.081,147.375 213.119 M166.628 213.121 C 166.928 213.158,167.378 213.157,167.628 213.119 C 167.878 213.081,167.633 213.051,167.083 213.052 C 166.533 213.053,166.328 213.084,166.628 213.121 M145.375 213.286 C 145.627 213.324,146.040 213.324,146.292 213.286 C 146.544 213.248,146.337 213.217,145.833 213.217 C 145.329 213.217,145.123 213.248,145.375 213.286 M168.708 213.286 C 168.960 213.324,169.373 213.324,169.625 213.286 C 169.877 213.248,169.671 213.217,169.167 213.217 C 168.662 213.217,168.456 213.248,168.708 213.286 M143.875 213.448 C 144.035 213.490,144.298 213.490,144.458 213.448 C 144.619 213.406,144.487 213.372,144.167 213.372 C 143.846 213.372,143.715 213.406,143.875 213.448 M170.794 213.451 C 171.001 213.491,171.301 213.490,171.460 213.448 C 171.620 213.406,171.450 213.374,171.083 213.375 C 170.717 213.377,170.586 213.411,170.794 213.451 M142.208 213.615 C 142.369 213.657,142.631 213.657,142.792 213.615 C 142.952 213.573,142.821 213.539,142.500 213.539 C 142.179 213.539,142.048 213.573,142.208 213.615 M172.458 213.618 C 172.665 213.657,173.002 213.657,173.208 213.618 C 173.415 213.578,173.246 213.545,172.833 213.545 C 172.421 213.545,172.252 213.578,172.458 213.618 M174.042 213.782 C 174.202 213.823,174.465 213.823,174.625 213.782 C 174.785 213.740,174.654 213.705,174.333 213.705 C 174.012 213.705,173.881 213.740,174.042 213.782 M139.542 213.948 C 139.702 213.990,139.965 213.990,140.125 213.948 C 140.285 213.906,140.154 213.872,139.833 213.872 C 139.512 213.872,139.381 213.906,139.542 213.948 M175.625 213.951 C 175.831 213.991,176.169 213.991,176.375 213.951 C 176.581 213.911,176.412 213.879,176.000 213.879 C 175.588 213.879,175.419 213.911,175.625 213.951 M200.208 213.948 C 200.369 213.990,200.631 213.990,200.792 213.948 C 200.952 213.906,200.821 213.872,200.500 213.872 C 200.179 213.872,200.048 213.906,200.208 213.948 M177.377 214.120 C 177.631 214.158,178.006 214.157,178.211 214.117 C 178.416 214.078,178.208 214.046,177.750 214.048 C 177.292 214.049,177.124 214.081,177.377 214.120 M198.627 214.118 C 198.834 214.158,199.134 214.156,199.294 214.115 C 199.453 214.073,199.283 214.040,198.917 214.042 C 198.550 214.044,198.420 214.078,198.627 214.118 M179.625 214.284 C 179.831 214.324,180.169 214.324,180.375 214.284 C 180.581 214.245,180.412 214.212,180.000 214.212 C 179.588 214.212,179.419 214.245,179.625 214.284 M196.792 214.284 C 196.998 214.324,197.335 214.324,197.542 214.284 C 197.748 214.245,197.579 214.212,197.167 214.212 C 196.754 214.212,196.585 214.245,196.792 214.284 M182.047 214.456 C 182.485 214.490,183.160 214.490,183.547 214.455 C 183.934 214.420,183.575 214.392,182.750 214.392 C 181.925 214.393,181.609 214.422,182.047 214.456 M193.963 214.456 C 194.355 214.491,194.955 214.490,195.296 214.454 C 195.637 214.419,195.317 214.390,194.583 214.390 C 193.850 214.391,193.571 214.420,193.963 214.456 M187.458 214.624 C 188.215 214.655,189.452 214.655,190.208 214.624 C 190.965 214.593,190.346 214.568,188.833 214.568 C 187.321 214.568,186.702 214.593,187.458 214.624 M126.667 216.500 C 126.323 216.610,126.309 216.636,126.583 216.648 C 126.767 216.655,127.029 216.589,127.167 216.500 C 127.459 216.311,127.256 216.311,126.667 216.500 M124.250 217.167 C 124.040 217.257,124.009 217.310,124.167 217.310 C 124.304 217.310,124.567 217.245,124.750 217.167 C 124.960 217.076,124.991 217.023,124.833 217.023 C 124.696 217.023,124.433 217.088,124.250 217.167 M122.083 217.833 C 121.873 217.924,121.842 217.977,122.000 217.977 C 122.138 217.977,122.400 217.912,122.583 217.833 C 122.793 217.743,122.824 217.690,122.667 217.690 C 122.529 217.690,122.267 217.755,122.083 217.833 M115.500 220.250 C 115.271 220.381,115.158 220.488,115.250 220.488 C 115.342 220.488,115.604 220.381,115.833 220.250 C 116.063 220.119,116.175 220.012,116.083 220.012 C 115.992 220.012,115.729 220.119,115.500 220.250 M113.000 221.333 C 112.679 221.509,112.492 221.653,112.583 221.653 C 112.675 221.653,113.013 221.509,113.333 221.333 C 113.654 221.158,113.842 221.014,113.750 221.014 C 113.658 221.014,113.321 221.158,113.000 221.333 M110.292 222.593 C 109.306 223.094,108.500 223.540,108.500 223.586 C 108.500 223.661,112.150 221.888,112.319 221.731 C 112.574 221.495,111.837 221.809,110.292 222.593 M137.795 221.954 C 138.094 221.991,138.544 221.990,138.795 221.952 C 139.045 221.914,138.800 221.884,138.250 221.885 C 137.700 221.886,137.495 221.917,137.795 221.954 M140.182 222.316 C 140.694 222.480,141.212 222.675,141.333 222.749 C 141.471 222.835,141.511 222.820,141.442 222.708 C 141.318 222.506,139.907 221.995,139.512 222.009 C 139.368 222.014,139.669 222.152,140.182 222.316 M135.125 222.595 C 134.479 222.946,134.552 223.067,135.208 222.733 C 135.837 222.414,135.948 222.331,135.736 222.340 C 135.652 222.344,135.377 222.459,135.125 222.595 M133.887 223.421 C 133.338 223.854,131.999 225.728,132.002 226.061 C 132.002 226.165,132.232 225.850,132.513 225.362 C 132.793 224.873,133.368 224.142,133.791 223.737 C 134.649 222.915,134.686 222.791,133.887 223.421 M142.826 223.891 C 143.235 224.318,143.597 224.667,143.631 224.667 C 143.764 224.667,142.892 223.704,142.500 223.419 C 142.271 223.253,142.418 223.465,142.826 223.891 M107.292 224.178 C 106.948 224.359,106.667 224.545,106.667 224.591 C 106.667 224.636,106.967 224.520,107.333 224.333 C 107.700 224.146,108.000 223.957,108.000 223.913 C 108.000 223.804,107.999 223.805,107.292 224.178 M104.680 225.756 C 102.893 226.876,100.667 228.464,100.667 228.620 C 100.667 228.668,100.760 228.632,100.875 228.539 C 101.611 227.944,103.908 226.377,105.095 225.659 C 106.289 224.939,106.668 224.663,106.458 224.668 C 106.435 224.668,105.635 225.158,104.680 225.756 M144.556 226.749 C 145.020 227.797,145.426 228.630,145.457 228.598 C 145.536 228.519,143.993 225.016,143.837 224.919 C 143.768 224.876,144.092 225.700,144.556 226.749 M131.548 228.583 C 131.549 229.042,131.581 229.209,131.620 228.956 C 131.658 228.703,131.657 228.328,131.617 228.123 C 131.578 227.918,131.546 228.125,131.548 228.583 M99.333 229.607 C 98.737 230.119,97.650 231.114,96.917 231.818 C 96.183 232.523,95.321 233.308,95.000 233.563 C 94.679 233.818,94.582 233.945,94.784 233.845 C 94.987 233.745,95.925 232.932,96.870 232.040 C 97.815 231.147,99.037 230.026,99.586 229.548 C 100.134 229.070,100.546 228.678,100.500 228.677 C 100.454 228.677,99.929 229.095,99.333 229.607 M145.512 228.917 C 145.512 229.008,145.619 229.271,145.750 229.500 C 145.881 229.729,145.988 229.842,145.988 229.750 C 145.988 229.658,145.881 229.396,145.750 229.167 C 145.619 228.938,145.512 228.825,145.512 228.917 M131.678 229.850 C 131.665 230.157,132.010 231.212,132.095 231.127 C 132.127 231.096,132.048 230.736,131.921 230.327 C 131.793 229.918,131.684 229.703,131.678 229.850 M85.667 231.062 C 85.667 231.242,86.329 232.500,86.423 232.500 C 86.469 232.500,86.346 232.181,86.150 231.792 C 85.763 231.026,85.667 230.880,85.667 231.062 M146.845 232.083 C 146.845 232.175,146.952 232.438,147.083 232.667 C 147.214 232.896,147.322 233.008,147.322 232.917 C 147.322 232.825,147.214 232.563,147.083 232.333 C 146.952 232.104,146.845 231.992,146.845 232.083 M87.019 233.331 C 87.312 233.697,87.747 234.122,87.985 234.276 C 88.222 234.430,88.004 234.132,87.500 233.614 C 86.416 232.499,86.291 232.426,87.019 233.331 M132.929 233.333 C 132.990 233.563,133.110 233.862,133.195 234.000 C 133.302 234.174,133.315 234.123,133.238 233.833 C 133.176 233.604,133.057 233.304,132.972 233.167 C 132.865 232.993,132.851 233.044,132.929 233.333 M173.628 233.787 C 173.928 233.825,174.378 233.824,174.628 233.786 C 174.878 233.748,174.633 233.717,174.083 233.718 C 173.533 233.719,173.328 233.750,173.628 233.787 M171.083 234.314 C 170.503 234.582,167.716 236.690,167.250 237.213 C 166.985 237.511,167.437 237.177,168.909 235.988 C 169.639 235.399,170.651 234.712,171.159 234.462 C 172.190 233.955,172.127 233.834,171.083 234.314 M176.514 234.229 C 176.685 234.382,177.667 234.833,177.667 234.759 C 177.667 234.663,176.743 234.167,176.564 234.167 C 176.498 234.167,176.476 234.195,176.514 234.229 M178.667 235.721 C 179.171 236.240,179.607 236.665,179.636 236.666 C 179.819 236.669,178.905 235.636,178.381 235.246 C 177.862 234.860,177.912 234.944,178.667 235.721 M90.458 235.284 C 90.665 235.324,91.002 235.324,91.208 235.284 C 91.415 235.245,91.246 235.212,90.833 235.212 C 90.421 235.212,90.252 235.245,90.458 235.284 M134.012 236.038 C 133.993 236.236,134.536 237.520,134.608 237.448 C 134.644 237.412,134.527 237.052,134.349 236.649 C 134.170 236.246,134.018 235.971,134.012 236.038 M148.749 236.583 C 148.903 236.950,149.299 237.905,149.629 238.705 C 149.959 239.505,150.259 240.130,150.295 240.094 C 150.379 240.010,148.839 236.307,148.627 236.083 C 148.540 235.992,148.595 236.217,148.749 236.583 M179.949 237.415 C 180.102 237.734,180.256 237.966,180.292 237.930 C 180.368 237.854,179.862 236.833,179.748 236.833 C 179.706 236.833,179.797 237.095,179.949 237.415 M166.000 238.018 C 164.692 238.973,164.555 239.187,165.801 238.329 C 166.694 237.714,167.169 237.312,166.968 237.341 C 166.940 237.345,166.504 237.649,166.000 238.018 M135.096 238.833 C 135.157 239.063,135.276 239.362,135.361 239.500 C 135.469 239.674,135.482 239.623,135.404 239.333 C 135.343 239.104,135.224 238.804,135.139 238.667 C 135.031 238.493,135.018 238.544,135.096 238.833 M164.034 239.405 C 163.260 239.952,163.151 240.109,163.804 239.734 C 164.109 239.560,164.437 239.323,164.533 239.208 C 164.780 238.914,164.664 238.959,164.034 239.405 M180.698 240.417 C 180.678 241.058,180.624 241.771,180.576 242.000 L 180.491 242.417 180.669 242.009 C 180.767 241.785,180.821 241.073,180.790 240.426 L 180.733 239.250 180.698 240.417 M135.598 240.167 C 135.659 240.396,135.814 240.771,135.944 241.000 L 136.179 241.417 136.069 241.000 C 136.008 240.771,135.853 240.396,135.723 240.167 L 135.488 239.750 135.598 240.167 M162.542 240.353 C 161.974 240.716,161.790 240.961,162.292 240.685 C 162.674 240.475,163.273 240.011,163.167 240.008 C 163.121 240.007,162.840 240.162,162.542 240.353 M150.586 240.950 C 150.836 241.548,151.000 241.818,151.000 241.631 C 151.000 241.452,150.494 240.333,150.412 240.333 C 150.366 240.333,150.445 240.611,150.586 240.950 M161.042 241.261 C 160.255 241.732,160.074 241.979,160.792 241.600 C 161.295 241.335,161.965 240.846,161.833 240.840 C 161.787 240.838,161.431 241.028,161.042 241.261 M151.062 242.000 C 151.209 242.541,151.712 243.677,151.777 243.612 C 151.815 243.574,151.654 243.140,151.420 242.647 C 151.186 242.153,151.025 241.862,151.062 242.000 M159.458 242.178 C 159.115 242.359,158.833 242.545,158.833 242.591 C 158.833 242.636,159.133 242.520,159.500 242.333 C 159.867 242.146,160.167 241.957,160.167 241.913 C 160.167 241.804,160.165 241.805,159.458 242.178 M180.052 243.350 C 179.852 243.799,179.719 244.167,179.757 244.167 C 179.879 244.167,180.522 242.814,180.468 242.671 C 180.440 242.596,180.253 242.901,180.052 243.350 M157.125 243.427 C 156.323 243.836,155.667 244.208,155.667 244.253 C 155.667 244.299,156.342 243.998,157.167 243.583 C 157.992 243.169,158.667 242.793,158.667 242.748 C 158.667 242.636,158.745 242.601,157.125 243.427 M152.019 244.250 C 152.022 244.342,152.169 244.717,152.345 245.083 C 152.522 245.450,152.619 245.563,152.562 245.333 C 152.445 244.861,152.010 243.995,152.019 244.250 M154.000 245.000 C 153.313 245.358,152.825 245.650,152.917 245.650 C 153.008 245.650,153.646 245.358,154.333 245.000 C 155.021 244.642,155.508 244.350,155.417 244.350 C 155.325 244.350,154.688 244.642,154.000 245.000 M178.345 245.713 C 177.613 246.522,177.431 246.776,177.900 246.333 C 178.620 245.653,179.775 244.327,179.639 244.338 C 179.608 244.340,179.026 244.959,178.345 245.713 M137.596 245.167 C 137.657 245.396,137.776 245.696,137.861 245.833 C 137.969 246.007,137.982 245.956,137.904 245.667 C 137.843 245.438,137.724 245.137,137.639 245.000 C 137.531 244.826,137.518 244.877,137.596 245.167 M176.649 247.276 C 176.018 248.049,171.942 251.236,169.500 252.865 C 166.972 254.552,166.188 255.105,166.833 254.748 C 169.294 253.387,172.501 251.031,176.634 247.549 C 176.874 247.347,177.028 247.139,176.976 247.087 C 176.923 247.035,176.776 247.120,176.649 247.276 M139.449 249.958 C 139.526 250.407,139.488 250.502,139.229 250.513 C 139.057 250.520,139.008 250.563,139.119 250.608 C 139.584 250.797,139.816 250.448,139.580 249.917 L 139.357 249.417 139.449 249.958 M136.250 251.333 C 135.825 251.516,136.263 251.516,136.833 251.333 C 137.168 251.226,137.185 251.199,136.917 251.195 C 136.733 251.192,136.433 251.255,136.250 251.333 M134.917 251.667 C 134.492 251.849,134.930 251.849,135.500 251.667 C 135.835 251.559,135.851 251.532,135.583 251.528 C 135.400 251.526,135.100 251.588,134.917 251.667 M121.875 254.282 C 122.035 254.323,122.298 254.323,122.458 254.282 C 122.619 254.240,122.487 254.205,122.167 254.205 C 121.846 254.205,121.715 254.240,121.875 254.282 M119.375 254.615 C 119.535 254.657,119.798 254.657,119.958 254.615 C 120.119 254.573,119.987 254.539,119.667 254.539 C 119.346 254.539,119.215 254.573,119.375 254.615 M118.042 254.782 C 118.202 254.823,118.465 254.823,118.625 254.782 C 118.785 254.740,118.654 254.705,118.333 254.705 C 118.013 254.705,117.881 254.740,118.042 254.782 M164.627 255.892 C 163.333 256.634,163.165 256.863,164.417 256.178 C 165.328 255.679,165.850 255.325,165.658 255.338 C 165.617 255.341,165.153 255.590,164.627 255.892 M114.083 256.147 C 113.625 256.500,113.006 257.130,112.708 257.547 C 111.935 258.629,112.037 258.707,112.832 257.642 C 113.198 257.151,113.885 256.469,114.358 256.125 C 114.831 255.781,115.150 255.501,115.067 255.503 C 114.984 255.504,114.542 255.794,114.083 256.147 M161.000 257.833 C 159.946 258.374,159.141 258.820,159.211 258.825 C 159.388 258.837,163.000 257.016,163.000 256.915 C 163.000 256.801,163.118 256.748,161.000 257.833 M157.667 259.417 C 157.254 259.638,156.992 259.818,157.083 259.818 C 157.175 259.818,157.587 259.638,158.000 259.417 C 158.412 259.196,158.675 259.015,158.583 259.015 C 158.492 259.015,158.079 259.196,157.667 259.417 M155.750 260.246 C 155.292 260.462,154.992 260.641,155.083 260.643 C 155.175 260.645,155.625 260.470,156.083 260.254 C 156.542 260.038,156.842 259.859,156.750 259.857 C 156.658 259.855,156.208 260.030,155.750 260.246 M153.917 261.012 C 153.550 261.188,153.438 261.286,153.667 261.229 C 154.139 261.111,155.005 260.677,154.750 260.686 C 154.658 260.689,154.283 260.836,153.917 261.012 M148.167 263.083 C 147.846 263.207,147.696 263.310,147.833 263.313 C 147.971 263.316,148.308 263.215,148.583 263.089 C 149.227 262.795,148.928 262.790,148.167 263.083 M145.250 264.000 C 145.040 264.090,145.009 264.143,145.167 264.143 C 145.304 264.143,145.567 264.079,145.750 264.000 C 145.960 263.910,145.991 263.857,145.833 263.857 C 145.696 263.857,145.433 263.921,145.250 264.000 M143.583 264.500 C 143.373 264.590,143.342 264.643,143.500 264.643 C 143.637 264.643,143.900 264.579,144.083 264.500 C 144.293 264.410,144.324 264.357,144.167 264.357 C 144.029 264.357,143.767 264.421,143.583 264.500 M112.333 265.223 C 112.333 265.469,113.293 266.744,113.858 267.249 L 114.417 267.748 113.814 267.082 C 113.483 266.716,113.014 266.118,112.773 265.753 C 112.531 265.388,112.333 265.149,112.333 265.223 M140.417 265.333 C 139.992 265.516,140.430 265.516,141.000 265.333 C 141.335 265.226,141.351 265.199,141.083 265.195 C 140.900 265.192,140.600 265.255,140.417 265.333 M127.542 267.948 C 127.702 267.990,127.965 267.990,128.125 267.948 C 128.285 267.906,128.154 267.872,127.833 267.872 C 127.513 267.872,127.381 267.906,127.542 267.948 M125.208 268.282 C 125.369 268.323,125.631 268.323,125.792 268.282 C 125.952 268.240,125.821 268.205,125.500 268.205 C 125.179 268.205,125.048 268.240,125.208 268.282 M122.542 268.615 C 122.702 268.657,122.965 268.657,123.125 268.615 C 123.285 268.573,123.154 268.539,122.833 268.539 C 122.513 268.539,122.381 268.573,122.542 268.615 M120.958 268.784 C 121.165 268.824,121.502 268.824,121.708 268.784 C 121.915 268.745,121.746 268.712,121.333 268.712 C 120.921 268.712,120.752 268.745,120.958 268.784 M119.460 268.951 C 119.668 268.991,119.968 268.990,120.127 268.948 C 120.286 268.906,120.117 268.874,119.750 268.875 C 119.383 268.877,119.253 268.911,119.460 268.951 " stroke="none" fill="#7895ed" fill-rule="evenodd"></path><path id="path4" d="M277.877 72.953 C 278.131 72.991,278.506 72.990,278.711 72.951 C 278.916 72.911,278.708 72.880,278.250 72.881 C 277.792 72.882,277.624 72.915,277.877 72.953 M283.877 72.953 C 284.131 72.991,284.506 72.990,284.711 72.951 C 284.916 72.911,284.708 72.880,284.250 72.881 C 283.792 72.882,283.624 72.915,283.877 72.953 M275.544 73.120 C 275.797 73.158,276.172 73.157,276.377 73.117 C 276.582 73.078,276.375 73.046,275.917 73.048 C 275.458 73.049,275.291 73.081,275.544 73.120 M285.993 73.254 C 286.402 73.381,286.762 73.460,286.794 73.429 C 286.879 73.343,285.824 72.998,285.517 73.011 C 285.370 73.017,285.585 73.127,285.993 73.254 M274.042 73.282 C 274.202 73.323,274.465 73.323,274.625 73.282 C 274.785 73.240,274.654 73.205,274.333 73.205 C 274.012 73.205,273.881 73.240,274.042 73.282 M287.586 73.939 C 287.951 74.181,288.550 74.650,288.916 74.981 L 289.581 75.583 289.082 75.025 C 288.577 74.460,287.302 73.500,287.056 73.500 C 286.983 73.500,287.221 73.698,287.586 73.939 M262.917 75.500 C 262.707 75.590,262.676 75.643,262.833 75.643 C 262.971 75.643,263.233 75.579,263.417 75.500 C 263.627 75.410,263.658 75.357,263.500 75.357 C 263.362 75.357,263.100 75.421,262.917 75.500 M259.698 76.447 C 259.303 76.587,259.009 76.731,259.045 76.767 C 259.081 76.803,259.517 76.688,260.013 76.512 C 260.510 76.335,260.804 76.191,260.667 76.192 C 260.529 76.193,260.093 76.307,259.698 76.447 M257.917 77.077 C 257.273 77.372,257.572 77.376,258.333 77.083 C 258.654 76.960,258.804 76.856,258.667 76.854 C 258.529 76.851,258.192 76.951,257.917 77.077 M290.486 77.587 C 290.575 77.860,290.687 78.233,290.735 78.417 C 290.783 78.600,290.790 78.456,290.751 78.098 C 290.711 77.739,290.599 77.366,290.502 77.268 C 290.376 77.143,290.372 77.237,290.486 77.587 M256.083 77.756 C 255.667 77.957,255.653 77.980,256.000 77.895 C 256.472 77.779,257.003 77.509,256.750 77.513 C 256.658 77.514,256.358 77.623,256.083 77.756 M254.750 78.256 C 254.333 78.457,254.319 78.480,254.667 78.395 C 255.139 78.279,255.670 78.009,255.417 78.013 C 255.325 78.014,255.025 78.123,254.750 78.256 M251.833 79.417 C 251.604 79.548,251.492 79.655,251.583 79.655 C 251.675 79.655,251.938 79.548,252.167 79.417 C 252.396 79.286,252.508 79.178,252.417 79.178 C 252.325 79.178,252.063 79.286,251.833 79.417 M250.333 80.083 C 250.104 80.214,249.992 80.322,250.083 80.322 C 250.175 80.322,250.438 80.214,250.667 80.083 C 250.896 79.952,251.008 79.845,250.917 79.845 C 250.825 79.845,250.563 79.952,250.333 80.083 M248.500 80.917 C 248.271 81.048,248.158 81.155,248.250 81.155 C 248.342 81.155,248.604 81.048,248.833 80.917 C 249.063 80.786,249.175 80.678,249.083 80.678 C 248.992 80.678,248.729 80.786,248.500 80.917 M246.458 81.845 C 246.115 82.026,245.833 82.212,245.833 82.257 C 245.833 82.332,247.150 81.716,247.319 81.563 C 247.511 81.389,247.011 81.553,246.458 81.845 M290.046 82.766 C 289.845 83.175,289.744 83.472,289.820 83.425 C 289.993 83.318,290.551 82.162,290.469 82.080 C 290.436 82.048,290.246 82.356,290.046 82.766 M244.458 82.844 C 243.931 83.116,243.500 83.376,243.500 83.422 C 243.500 83.496,245.483 82.552,245.653 82.397 C 245.871 82.197,245.291 82.414,244.458 82.844 M242.458 83.928 C 242.023 84.154,241.667 84.377,241.667 84.423 C 241.667 84.468,242.042 84.316,242.500 84.083 C 242.958 83.851,243.333 83.625,243.333 83.581 C 243.333 83.470,243.348 83.464,242.458 83.928 M288.833 84.417 C 288.428 84.829,288.135 85.167,288.181 85.167 C 288.226 85.167,288.595 84.829,289.000 84.417 C 289.405 84.004,289.699 83.667,289.653 83.667 C 289.607 83.667,289.238 84.004,288.833 84.417 M239.750 85.429 C 239.017 85.847,238.342 86.273,238.250 86.375 C 238.158 86.477,238.271 86.447,238.500 86.308 C 238.729 86.169,239.423 85.774,240.042 85.430 C 240.991 84.902,241.333 84.662,241.125 84.668 C 241.102 84.669,240.483 85.011,239.750 85.429 M287.083 85.681 C 286.625 85.944,286.309 86.161,286.382 86.163 C 286.596 86.169,287.802 85.519,287.915 85.336 C 288.046 85.123,288.076 85.111,287.083 85.681 M284.833 86.333 L 284.083 86.450 284.750 86.463 C 285.117 86.471,285.567 86.412,285.750 86.333 C 286.136 86.167,285.901 86.167,284.833 86.333 M237.208 86.928 C 236.819 87.161,236.500 87.392,236.500 87.440 C 236.500 87.530,237.624 86.891,237.908 86.640 C 238.195 86.387,237.928 86.496,237.208 86.928 M282.292 86.618 C 282.498 86.657,282.835 86.657,283.042 86.618 C 283.248 86.578,283.079 86.545,282.667 86.545 C 282.254 86.545,282.085 86.578,282.292 86.618 M280.458 86.784 C 280.665 86.824,281.002 86.824,281.208 86.784 C 281.415 86.745,281.246 86.712,280.833 86.712 C 280.421 86.712,280.252 86.745,280.458 86.784 M234.747 88.440 C 233.897 89.004,233.597 89.301,234.261 88.923 C 234.846 88.589,235.626 88.009,235.497 88.004 C 235.450 88.002,235.112 88.198,234.747 88.440 M270.083 88.667 C 269.659 88.849,270.097 88.849,270.667 88.667 C 271.002 88.559,271.018 88.532,270.750 88.528 C 270.567 88.526,270.267 88.588,270.083 88.667 M266.833 89.583 C 266.512 89.707,266.362 89.808,266.500 89.808 C 266.637 89.808,267.012 89.707,267.333 89.583 C 267.654 89.460,267.804 89.359,267.667 89.359 C 267.529 89.359,267.154 89.460,266.833 89.583 M231.207 90.753 C 230.451 91.259,229.833 91.711,229.833 91.758 C 229.833 91.841,232.256 90.267,232.575 89.977 C 232.957 89.630,232.482 89.899,231.207 90.753 M265.125 90.115 C 264.965 90.157,264.833 90.247,264.833 90.316 C 264.833 90.558,265.372 92.017,265.437 91.952 C 265.474 91.915,265.389 91.562,265.250 91.167 C 265.111 90.771,265.016 90.433,265.040 90.415 C 265.064 90.397,265.233 90.299,265.417 90.196 C 265.756 90.007,265.651 89.978,265.125 90.115 M227.167 93.580 C 224.275 95.661,223.185 96.600,222.784 97.354 C 222.518 97.855,222.517 97.871,222.776 97.500 C 223.378 96.636,224.674 95.527,227.131 93.774 C 229.327 92.206,229.825 91.819,229.625 91.837 C 229.602 91.839,228.496 92.623,227.167 93.580 M265.606 92.500 C 265.662 92.729,265.810 93.142,265.936 93.417 C 266.118 93.818,266.143 93.835,266.061 93.500 C 266.005 93.271,265.856 92.858,265.731 92.583 C 265.548 92.182,265.524 92.165,265.606 92.500 M266.429 94.833 C 266.490 95.063,266.610 95.362,266.695 95.500 C 266.802 95.674,266.815 95.623,266.738 95.333 C 266.676 95.104,266.557 94.804,266.472 94.667 C 266.365 94.493,266.351 94.544,266.429 94.833 M250.292 96.343 C 249.398 96.798,248.667 97.207,248.667 97.253 C 248.667 97.299,249.419 96.959,250.338 96.498 L 252.009 95.659 252.314 96.371 C 252.481 96.763,252.674 97.258,252.741 97.471 C 252.809 97.684,252.898 97.824,252.939 97.783 C 253.040 97.682,252.161 95.498,252.024 95.509 C 251.965 95.513,251.185 95.889,250.292 96.343 M246.633 98.301 C 246.018 98.646,245.456 98.995,245.383 99.076 C 245.228 99.247,247.506 98.026,247.742 97.811 C 248.030 97.548,247.763 97.666,246.633 98.301 M253.096 98.333 C 253.157 98.563,253.276 98.862,253.361 99.000 C 253.469 99.174,253.482 99.123,253.404 98.833 C 253.343 98.604,253.224 98.304,253.139 98.167 C 253.031 97.993,253.018 98.044,253.096 98.333 M244.417 99.579 C 244.050 99.805,243.802 99.992,243.865 99.995 C 244.010 100.001,245.167 99.325,245.167 99.234 C 245.167 99.125,245.115 99.149,244.417 99.579 M253.607 99.666 C 253.667 99.895,253.854 100.382,254.025 100.749 C 254.195 101.116,254.285 101.229,254.226 101.001 C 254.167 100.772,253.979 100.284,253.809 99.917 C 253.639 99.550,253.548 99.437,253.607 99.666 M268.596 101.000 C 268.657 101.229,268.776 101.529,268.861 101.667 C 268.969 101.840,268.982 101.790,268.904 101.500 C 268.843 101.271,268.724 100.971,268.639 100.833 C 268.531 100.660,268.518 100.710,268.596 101.000 M241.417 101.355 C 240.958 101.639,240.508 101.948,240.417 102.043 C 240.232 102.233,241.381 101.579,242.014 101.134 C 242.680 100.666,242.308 100.804,241.417 101.355 M221.682 102.000 C 221.668 102.430,221.984 103.742,222.076 103.641 C 222.105 103.609,222.031 103.133,221.912 102.583 C 221.792 102.033,221.689 101.771,221.682 102.000 M237.167 104.127 C 235.563 105.205,233.837 106.394,233.333 106.768 C 232.828 107.143,232.116 107.608,231.749 107.801 C 231.383 107.994,231.143 108.155,231.217 108.159 C 231.483 108.174,232.416 107.609,233.900 106.534 C 234.734 105.930,236.485 104.734,237.792 103.876 C 239.831 102.537,240.340 102.164,240.125 102.167 C 240.102 102.168,238.771 103.050,237.167 104.127 M254.762 102.667 C 254.824 102.896,254.943 103.196,255.028 103.333 C 255.135 103.507,255.149 103.456,255.071 103.167 C 255.010 102.938,254.890 102.638,254.805 102.500 C 254.698 102.326,254.685 102.377,254.762 102.667 M269.272 102.833 C 269.329 103.063,269.477 103.475,269.602 103.750 C 269.785 104.152,269.810 104.168,269.728 103.833 C 269.671 103.604,269.523 103.192,269.398 102.917 C 269.215 102.515,269.190 102.499,269.272 102.833 M255.274 103.999 C 255.333 104.228,255.521 104.716,255.691 105.083 C 255.861 105.450,255.952 105.563,255.893 105.334 C 255.833 105.105,255.646 104.618,255.475 104.251 C 255.305 103.884,255.215 103.771,255.274 103.999 M222.181 103.917 C 222.181 104.008,222.324 104.346,222.500 104.667 C 222.676 104.987,222.819 105.175,222.819 105.083 C 222.819 104.992,222.676 104.654,222.500 104.333 C 222.324 104.013,222.181 103.825,222.181 103.917 M311.481 104.445 C 312.112 104.909,312.835 105.676,313.290 106.364 C 313.522 106.714,313.747 107.000,313.791 107.000 C 314.147 107.000,312.289 104.795,311.644 104.451 C 311.131 104.177,311.117 104.177,311.481 104.445 M304.988 105.126 C 304.306 105.588,302.834 106.904,302.833 107.051 C 302.833 107.125,303.152 106.887,303.542 106.523 C 303.931 106.159,304.475 105.692,304.750 105.485 C 305.671 104.793,305.827 104.557,304.988 105.126 M222.959 105.591 C 223.203 106.046,224.669 107.406,225.177 107.649 L 225.583 107.843 225.167 107.558 C 224.938 107.401,224.306 106.818,223.764 106.262 C 223.221 105.706,222.860 105.404,222.959 105.591 M256.107 106.166 C 256.167 106.395,256.354 106.882,256.525 107.249 C 256.695 107.616,256.785 107.729,256.726 107.501 C 256.667 107.272,256.479 106.784,256.309 106.417 C 256.139 106.050,256.048 105.937,256.107 106.166 M301.833 107.934 C 301.421 108.347,300.465 109.181,299.708 109.786 C 298.274 110.935,297.851 111.384,298.998 110.540 C 300.578 109.378,303.033 107.100,302.625 107.174 C 302.602 107.178,302.246 107.520,301.833 107.934 M314.028 107.675 C 314.125 107.955,314.236 108.153,314.274 108.115 C 314.356 108.032,314.042 107.167,313.929 107.167 C 313.886 107.167,313.930 107.395,314.028 107.675 M226.417 108.256 C 226.692 108.382,227.067 108.483,227.250 108.481 C 227.433 108.479,227.246 108.371,226.833 108.241 C 225.908 107.950,225.759 107.955,226.417 108.256 M228.292 108.621 C 228.590 108.658,229.077 108.658,229.375 108.621 C 229.673 108.584,229.429 108.553,228.833 108.553 C 228.237 108.553,227.994 108.584,228.292 108.621 M257.762 110.500 C 257.824 110.729,257.943 111.029,258.028 111.167 C 258.135 111.340,258.149 111.290,258.071 111.000 C 258.010 110.771,257.890 110.471,257.805 110.333 C 257.698 110.160,257.685 110.210,257.762 110.500 M297.583 111.431 L 297.083 111.861 297.625 111.502 C 297.923 111.305,298.167 111.112,298.167 111.072 C 298.167 110.947,298.096 110.991,297.583 111.431 M272.385 112.750 C 272.386 113.300,272.417 113.505,272.454 113.205 C 272.491 112.906,272.490 112.456,272.452 112.205 C 272.414 111.955,272.384 112.200,272.385 112.750 M295.722 112.637 C 294.386 113.508,293.890 113.936,294.917 113.332 C 295.860 112.776,297.000 111.998,297.000 111.909 C 297.000 111.801,297.030 111.784,295.722 112.637 M313.642 114.510 C 313.402 114.961,313.272 115.288,313.355 115.237 C 313.534 115.126,314.214 113.825,314.134 113.746 C 314.104 113.715,313.882 114.059,313.642 114.510 M292.458 114.595 C 291.835 114.933,291.873 115.074,292.500 114.750 C 292.775 114.608,293.000 114.456,293.000 114.412 C 293.000 114.305,292.982 114.311,292.458 114.595 M259.505 115.083 C 259.502 115.424,260.485 116.933,261.025 117.416 L 261.583 117.916 261.050 117.333 C 260.756 117.012,260.289 116.337,260.011 115.833 C 259.733 115.329,259.505 114.992,259.505 115.083 M290.458 115.677 C 289.931 115.949,289.500 116.209,289.500 116.255 C 289.500 116.301,289.950 116.111,290.500 115.833 C 291.050 115.556,291.500 115.292,291.500 115.248 C 291.500 115.136,291.531 115.124,290.458 115.677 M311.706 117.250 C 310.959 118.212,310.379 119.000,310.417 119.000 C 310.488 119.000,311.933 117.214,312.742 116.125 C 313.742 114.779,312.989 115.596,311.706 117.250 M271.170 116.412 C 270.973 116.730,270.461 117.303,270.031 117.685 C 269.601 118.067,269.405 118.299,269.594 118.201 C 270.000 117.989,271.214 116.700,271.487 116.191 C 271.794 115.617,271.560 115.780,271.170 116.412 M288.167 116.833 C 287.662 117.100,287.325 117.318,287.417 117.318 C 287.508 117.318,287.996 117.100,288.500 116.833 C 289.004 116.567,289.342 116.349,289.250 116.349 C 289.158 116.349,288.671 116.567,288.167 116.833 M286.167 117.750 C 285.938 117.881,285.825 117.988,285.917 117.988 C 286.008 117.988,286.271 117.881,286.500 117.750 C 286.729 117.619,286.842 117.512,286.750 117.512 C 286.658 117.512,286.396 117.619,286.167 117.750 M262.083 118.235 C 262.358 118.472,262.652 118.665,262.736 118.666 C 262.917 118.667,262.915 118.665,262.167 118.182 L 261.583 117.806 262.083 118.235 M284.875 118.264 C 284.577 118.394,284.333 118.539,284.333 118.586 C 284.333 118.673,285.502 118.220,285.644 118.078 C 285.786 117.936,285.425 118.024,284.875 118.264 M263.369 118.908 C 263.619 119.053,264.181 119.208,264.619 119.253 L 265.417 119.334 264.500 119.109 C 263.996 118.985,263.433 118.830,263.250 118.765 C 263.067 118.699,263.120 118.764,263.369 118.908 M307.417 122.072 C 305.858 123.658,303.871 125.536,303.000 126.246 C 301.255 127.669,300.435 128.438,301.750 127.418 C 303.417 126.126,304.452 125.220,306.226 123.502 C 307.813 121.966,310.474 119.147,310.309 119.178 C 310.277 119.184,308.975 120.486,307.417 122.072 M280.750 119.923 C 280.333 120.123,280.319 120.146,280.667 120.062 C 281.139 119.946,281.670 119.676,281.417 119.679 C 281.325 119.681,281.025 119.790,280.750 119.923 M277.250 121.077 C 276.606 121.372,276.906 121.376,277.667 121.083 C 277.987 120.960,278.137 120.856,278.000 120.854 C 277.862 120.851,277.525 120.951,277.250 121.077 M271.667 122.667 C 271.332 122.774,271.315 122.801,271.583 122.805 C 271.767 122.808,272.067 122.745,272.250 122.667 C 272.675 122.484,272.237 122.484,271.667 122.667 M206.049 124.457 C 206.671 124.489,207.646 124.489,208.215 124.457 C 208.784 124.424,208.275 124.398,207.083 124.398 C 205.892 124.398,205.426 124.425,206.049 124.457 M213.792 124.457 C 214.456 124.489,215.544 124.489,216.208 124.457 C 216.873 124.425,216.329 124.400,215.000 124.400 C 213.671 124.400,213.127 124.425,213.792 124.457 M203.377 124.620 C 203.631 124.658,204.006 124.657,204.211 124.617 C 204.416 124.578,204.208 124.546,203.750 124.548 C 203.292 124.549,203.124 124.581,203.377 124.620 M218.375 124.619 C 218.627 124.658,219.040 124.658,219.292 124.619 C 219.544 124.581,219.338 124.550,218.833 124.550 C 218.329 124.550,218.123 124.581,218.375 124.619 M201.292 124.784 C 201.498 124.824,201.835 124.824,202.042 124.784 C 202.248 124.745,202.079 124.712,201.667 124.712 C 201.254 124.712,201.085 124.745,201.292 124.784 M220.795 124.787 C 221.094 124.825,221.544 124.824,221.795 124.786 C 222.045 124.748,221.800 124.717,221.250 124.718 C 220.700 124.719,220.495 124.750,220.795 124.787 M199.794 124.951 C 200.001 124.991,200.301 124.990,200.460 124.948 C 200.620 124.906,200.450 124.874,200.083 124.875 C 199.717 124.877,199.586 124.911,199.794 124.951 M222.877 124.953 C 223.131 124.991,223.506 124.990,223.711 124.951 C 223.916 124.911,223.708 124.880,223.250 124.881 C 222.792 124.882,222.624 124.915,222.877 124.953 M260.208 124.948 C 260.369 124.990,260.631 124.990,260.792 124.948 C 260.952 124.906,260.821 124.872,260.500 124.872 C 260.179 124.872,260.048 124.906,260.208 124.948 M225.958 125.284 C 226.165 125.324,226.502 125.324,226.708 125.284 C 226.915 125.245,226.746 125.212,226.333 125.212 C 225.921 125.212,225.752 125.245,225.958 125.284 M257.627 125.285 C 257.834 125.324,258.134 125.323,258.294 125.281 C 258.453 125.239,258.283 125.207,257.917 125.209 C 257.550 125.211,257.420 125.245,257.627 125.285 M227.627 125.451 C 227.834 125.491,228.134 125.490,228.294 125.448 C 228.453 125.406,228.283 125.374,227.917 125.375 C 227.550 125.377,227.420 125.411,227.627 125.451 M256.208 125.448 C 256.369 125.490,256.631 125.490,256.792 125.448 C 256.952 125.406,256.821 125.372,256.500 125.372 C 256.179 125.372,256.048 125.406,256.208 125.448 M229.292 125.618 C 229.498 125.657,229.835 125.657,230.042 125.618 C 230.248 125.578,230.079 125.545,229.667 125.545 C 229.254 125.545,229.085 125.578,229.292 125.618 M254.544 125.620 C 254.797 125.658,255.172 125.657,255.377 125.617 C 255.582 125.578,255.375 125.546,254.917 125.548 C 254.458 125.549,254.291 125.581,254.544 125.620 M231.375 125.786 C 231.627 125.824,232.040 125.824,232.292 125.786 C 232.544 125.748,232.338 125.717,231.833 125.717 C 231.329 125.717,231.123 125.748,231.375 125.786 M252.544 125.786 C 252.797 125.825,253.172 125.824,253.377 125.784 C 253.582 125.744,253.375 125.713,252.917 125.714 C 252.458 125.716,252.291 125.748,252.544 125.786 M234.044 125.953 C 234.297 125.991,234.672 125.990,234.877 125.951 C 235.082 125.911,234.875 125.880,234.417 125.881 C 233.958 125.882,233.791 125.915,234.044 125.953 M250.211 125.953 C 250.464 125.991,250.839 125.990,251.044 125.951 C 251.249 125.911,251.042 125.880,250.583 125.881 C 250.125 125.882,249.957 125.915,250.211 125.953 M237.633 126.124 C 238.394 126.155,239.594 126.155,240.300 126.124 C 241.006 126.093,240.383 126.067,238.917 126.067 C 237.450 126.068,236.872 126.093,237.633 126.124 M244.550 126.124 C 245.356 126.155,246.631 126.155,247.383 126.124 C 248.135 126.093,247.475 126.068,245.917 126.068 C 244.358 126.068,243.743 126.094,244.550 126.124 M188.083 127.167 C 187.873 127.257,187.842 127.310,188.000 127.310 C 188.137 127.310,188.400 127.245,188.583 127.167 C 188.793 127.076,188.824 127.023,188.667 127.023 C 188.529 127.023,188.267 127.088,188.083 127.167 M299.719 128.804 C 298.321 129.861,298.187 130.050,299.457 129.172 C 300.339 128.563,301.034 127.968,300.812 128.012 C 300.778 128.019,300.286 128.376,299.719 128.804 M183.917 128.589 C 183.500 128.790,183.486 128.813,183.833 128.728 C 184.306 128.613,184.836 128.342,184.583 128.346 C 184.492 128.347,184.192 128.457,183.917 128.589 M180.333 130.083 C 179.921 130.304,179.658 130.485,179.750 130.485 C 179.842 130.485,180.254 130.304,180.667 130.083 C 181.079 129.862,181.342 129.682,181.250 129.682 C 181.158 129.682,180.746 129.862,180.333 130.083 M297.201 130.572 C 296.426 131.119,296.317 131.275,296.971 130.901 C 297.276 130.726,297.604 130.490,297.700 130.375 C 297.946 130.081,297.831 130.126,297.201 130.572 M178.458 131.011 C 177.931 131.283,177.500 131.543,177.500 131.588 C 177.500 131.634,177.950 131.444,178.500 131.167 C 179.050 130.889,179.500 130.625,179.500 130.581 C 179.500 130.470,179.531 130.457,178.458 131.011 M295.358 131.744 C 294.255 132.447,294.025 132.676,294.917 132.184 C 295.590 131.813,296.487 131.174,296.333 131.175 C 296.287 131.175,295.848 131.431,295.358 131.744 M176.792 131.929 C 176.169 132.267,176.207 132.407,176.833 132.083 C 177.108 131.941,177.333 131.789,177.333 131.746 C 177.333 131.638,177.315 131.645,176.792 131.929 M175.542 132.686 C 174.974 133.050,174.790 133.294,175.292 133.018 C 175.674 132.808,176.273 132.345,176.167 132.341 C 176.121 132.340,175.840 132.495,175.542 132.686 M292.958 133.146 C 292.339 133.494,291.776 133.841,291.708 133.918 C 291.552 134.093,293.859 132.858,294.075 132.651 C 294.345 132.394,294.124 132.491,292.958 133.146 M173.143 134.275 C 169.872 136.668,165.539 141.036,163.950 143.542 C 163.394 144.418,163.785 143.991,164.876 142.531 C 166.889 139.835,170.248 136.551,173.083 134.506 C 174.206 133.697,174.444 133.500,174.302 133.500 C 174.248 133.500,173.726 133.849,173.143 134.275 M287.833 135.750 C 287.604 135.881,287.492 135.988,287.583 135.988 C 287.675 135.988,287.938 135.881,288.167 135.750 C 288.396 135.619,288.508 135.512,288.417 135.512 C 288.325 135.512,288.063 135.619,287.833 135.750 M286.000 136.583 C 285.771 136.714,285.658 136.822,285.750 136.822 C 285.842 136.822,286.104 136.714,286.333 136.583 C 286.563 136.452,286.675 136.345,286.583 136.345 C 286.492 136.345,286.229 136.452,286.000 136.583 M283.083 137.756 C 282.667 137.957,282.653 137.980,283.000 137.895 C 283.472 137.779,284.003 137.509,283.750 137.513 C 283.658 137.514,283.358 137.623,283.083 137.756 M280.750 138.589 C 280.333 138.790,280.319 138.813,280.667 138.728 C 281.139 138.613,281.670 138.342,281.417 138.346 C 281.325 138.347,281.025 138.457,280.750 138.589 M276.917 139.756 C 276.257 139.985,276.256 139.986,276.833 139.891 C 277.154 139.838,277.529 139.731,277.667 139.653 C 278.034 139.443,277.679 139.492,276.917 139.756 M212.875 139.958 C 214.135 139.986,216.198 139.986,217.458 139.958 C 218.719 139.930,217.688 139.906,215.167 139.906 C 212.646 139.906,211.615 139.930,212.875 139.958 M208.208 140.119 C 208.460 140.158,208.873 140.158,209.125 140.119 C 209.377 140.081,209.171 140.050,208.667 140.050 C 208.162 140.050,207.956 140.081,208.208 140.119 M221.292 140.121 C 221.590 140.158,222.077 140.158,222.375 140.121 C 222.673 140.084,222.429 140.053,221.833 140.053 C 221.237 140.053,220.994 140.084,221.292 140.121 M206.211 140.286 C 206.464 140.325,206.839 140.324,207.044 140.284 C 207.249 140.244,207.042 140.213,206.583 140.214 C 206.125 140.216,205.957 140.248,206.211 140.286 M223.792 140.287 C 224.090 140.324,224.577 140.324,224.875 140.287 C 225.173 140.250,224.929 140.220,224.333 140.220 C 223.737 140.220,223.494 140.250,223.792 140.287 M226.208 140.448 C 226.369 140.490,226.631 140.490,226.792 140.448 C 226.952 140.406,226.821 140.372,226.500 140.372 C 226.179 140.372,226.048 140.406,226.208 140.448 M203.208 140.615 C 203.369 140.657,203.631 140.657,203.792 140.615 C 203.952 140.573,203.821 140.539,203.500 140.539 C 203.179 140.539,203.048 140.573,203.208 140.615 M227.792 140.618 C 227.998 140.657,228.335 140.657,228.542 140.618 C 228.748 140.578,228.579 140.545,228.167 140.545 C 227.754 140.545,227.585 140.578,227.792 140.618 M229.542 140.782 C 229.702 140.823,229.965 140.823,230.125 140.782 C 230.285 140.740,230.154 140.705,229.833 140.705 C 229.512 140.705,229.381 140.740,229.542 140.782 M232.294 141.118 C 232.501 141.158,232.801 141.156,232.960 141.115 C 233.120 141.073,232.950 141.040,232.583 141.042 C 232.217 141.044,232.086 141.078,232.294 141.118 M195.750 142.000 C 195.325 142.183,195.763 142.183,196.333 142.000 C 196.668 141.893,196.685 141.866,196.417 141.862 C 196.233 141.859,195.933 141.921,195.750 142.000 M238.460 141.951 C 238.668 141.991,238.968 141.990,239.127 141.948 C 239.286 141.906,239.117 141.874,238.750 141.875 C 238.383 141.877,238.253 141.911,238.460 141.951 M266.542 141.948 C 266.702 141.990,266.965 141.990,267.125 141.948 C 267.285 141.906,267.154 141.872,266.833 141.872 C 266.512 141.872,266.381 141.906,266.542 141.948 M241.125 142.284 C 241.331 142.324,241.669 142.324,241.875 142.284 C 242.081 142.245,241.912 142.212,241.500 142.212 C 241.088 142.212,240.919 142.245,241.125 142.284 M263.960 142.285 C 264.168 142.324,264.468 142.323,264.627 142.281 C 264.786 142.239,264.617 142.207,264.250 142.209 C 263.883 142.211,263.753 142.245,263.960 142.285 M193.917 142.500 C 193.707 142.590,193.676 142.643,193.833 142.643 C 193.971 142.643,194.233 142.579,194.417 142.500 C 194.627 142.410,194.658 142.357,194.500 142.357 C 194.362 142.357,194.100 142.421,193.917 142.500 M243.044 142.453 C 243.297 142.491,243.672 142.490,243.877 142.451 C 244.082 142.411,243.875 142.380,243.417 142.381 C 242.958 142.382,242.791 142.415,243.044 142.453 M262.292 142.451 C 262.498 142.491,262.835 142.491,263.042 142.451 C 263.248 142.411,263.079 142.379,262.667 142.379 C 262.254 142.379,262.085 142.411,262.292 142.451 M245.044 142.620 C 245.297 142.658,245.672 142.657,245.877 142.617 C 246.082 142.578,245.875 142.546,245.417 142.548 C 244.958 142.549,244.791 142.581,245.044 142.620 M260.458 142.618 C 260.665 142.657,261.002 142.657,261.208 142.618 C 261.415 142.578,261.246 142.545,260.833 142.545 C 260.421 142.545,260.252 142.578,260.458 142.618 M247.713 142.789 C 248.152 142.824,248.827 142.823,249.213 142.788 C 249.600 142.754,249.242 142.725,248.417 142.726 C 247.592 142.726,247.275 142.755,247.713 142.789 M257.296 142.789 C 257.688 142.824,258.288 142.824,258.629 142.788 C 258.971 142.752,258.650 142.723,257.917 142.724 C 257.183 142.724,256.904 142.754,257.296 142.789 M190.750 143.589 C 190.333 143.790,190.319 143.813,190.667 143.728 C 191.139 143.613,191.670 143.342,191.417 143.346 C 191.325 143.347,191.025 143.457,190.750 143.589 M163.207 144.625 C 162.682 145.389,162.135 146.333,162.218 146.333 C 162.261 146.333,162.602 145.846,162.975 145.250 C 163.652 144.171,163.807 143.754,163.207 144.625 M188.500 144.500 C 188.179 144.676,187.992 144.819,188.083 144.819 C 188.175 144.819,188.512 144.676,188.833 144.500 C 189.154 144.324,189.342 144.181,189.250 144.181 C 189.158 144.181,188.821 144.324,188.500 144.500 M186.625 145.344 C 186.098 145.616,185.667 145.873,185.667 145.914 C 185.667 146.027,186.110 145.835,187.062 145.311 C 188.194 144.687,187.848 144.713,186.625 145.344 M184.958 146.262 C 184.335 146.600,184.373 146.741,185.000 146.417 C 185.275 146.274,185.500 146.123,185.500 146.079 C 185.500 145.972,185.482 145.978,184.958 146.262 M161.667 147.167 C 161.480 147.533,161.364 147.833,161.410 147.833 C 161.456 147.833,161.646 147.533,161.833 147.167 C 162.020 146.800,162.136 146.500,162.090 146.500 C 162.044 146.500,161.854 146.800,161.667 147.167 M182.789 147.589 C 182.447 147.822,182.167 148.048,182.167 148.092 C 182.167 148.136,182.467 147.973,182.833 147.730 C 183.416 147.345,183.612 147.167,183.455 147.167 C 183.431 147.167,183.131 147.357,182.789 147.589 M180.496 149.283 C 177.926 151.314,174.501 155.120,173.116 157.486 C 172.619 158.334,172.908 158.067,173.576 157.062 C 175.406 154.305,178.155 151.308,180.616 149.386 C 181.833 148.436,182.129 148.167,181.954 148.167 C 181.929 148.167,181.272 148.669,180.496 149.283 M159.694 151.090 C 159.414 151.703,159.468 151.834,159.770 151.277 C 159.911 151.017,159.995 150.773,159.957 150.735 C 159.919 150.696,159.800 150.857,159.694 151.090 M158.694 153.590 C 158.587 153.824,158.503 154.106,158.507 154.216 C 158.510 154.326,158.624 154.162,158.759 153.850 C 159.044 153.194,158.984 152.954,158.694 153.590 M157.595 156.929 C 157.534 157.173,157.516 157.405,157.555 157.444 C 157.594 157.483,157.677 157.316,157.738 157.071 C 157.799 156.827,157.817 156.595,157.778 156.556 C 157.739 156.517,157.657 156.684,157.595 156.929 M157.250 158.167 C 157.187 158.455,157.170 158.725,157.212 158.768 C 157.255 158.810,157.337 158.605,157.396 158.313 C 157.454 158.020,157.471 157.749,157.434 157.711 C 157.396 157.674,157.313 157.879,157.250 158.167 M171.411 160.510 C 170.937 161.447,170.590 162.299,170.748 162.141 C 170.906 161.983,171.997 159.667,171.913 159.667 C 171.872 159.667,171.647 160.046,171.411 160.510 M156.440 161.702 C 156.384 161.912,156.345 162.271,156.354 162.500 C 156.363 162.746,156.429 162.613,156.515 162.177 C 156.668 161.397,156.614 161.053,156.440 161.702 M170.360 162.757 C 170.081 163.370,170.134 163.501,170.436 162.944 C 170.577 162.683,170.662 162.439,170.623 162.401 C 170.585 162.363,170.467 162.523,170.360 162.757 M156.039 164.500 C 156.039 164.821,156.073 164.952,156.115 164.792 C 156.157 164.631,156.157 164.369,156.115 164.208 C 156.073 164.048,156.039 164.179,156.039 164.500 M155.872 165.667 C 155.872 165.987,155.906 166.119,155.948 165.958 C 155.990 165.798,155.990 165.535,155.948 165.375 C 155.906 165.215,155.872 165.346,155.872 165.667 M155.709 167.250 C 155.711 167.617,155.745 167.747,155.785 167.540 C 155.824 167.332,155.823 167.032,155.781 166.873 C 155.739 166.714,155.707 166.883,155.709 167.250 M155.553 169.333 C 155.553 169.929,155.584 170.173,155.621 169.875 C 155.658 169.577,155.658 169.090,155.621 168.792 C 155.584 168.494,155.553 168.737,155.553 169.333 M168.095 169.262 C 168.034 169.506,168.016 169.738,168.055 169.777 C 168.094 169.817,168.177 169.649,168.238 169.405 C 168.299 169.161,168.317 168.929,168.278 168.889 C 168.239 168.850,168.157 169.018,168.095 169.262 M155.400 174.083 C 155.400 175.458,155.426 175.999,155.457 175.284 C 155.489 174.569,155.488 173.444,155.457 172.784 C 155.425 172.124,155.400 172.708,155.400 174.083 M155.555 178.917 C 155.555 179.558,155.586 179.800,155.622 179.455 C 155.658 179.109,155.657 178.584,155.620 178.288 C 155.583 177.992,155.554 178.275,155.555 178.917 M166.205 179.167 C 166.205 179.487,166.240 179.619,166.282 179.458 C 166.323 179.298,166.323 179.035,166.282 178.875 C 166.240 178.715,166.205 178.846,166.205 179.167 M155.678 180.517 C 155.665 180.824,156.010 181.879,156.095 181.794 C 156.127 181.762,156.048 181.402,155.921 180.993 C 155.793 180.585,155.684 180.370,155.678 180.517 M165.355 182.244 C 164.873 183.153,164.480 183.523,163.329 184.158 C 162.319 184.714,162.311 184.855,163.318 184.341 C 164.451 183.763,166.128 181.906,165.807 181.585 C 165.770 181.548,165.567 181.845,165.355 182.244 M156.426 182.417 C 156.776 183.034,157.479 183.806,157.895 184.031 C 158.067 184.124,157.876 183.874,157.471 183.475 C 157.066 183.076,156.601 182.563,156.438 182.333 C 156.148 181.926,156.148 181.928,156.426 182.417 " stroke="none" fill="#2c4d9d" fill-rule="evenodd"></path></g></svg>